<?xml version="1.0" standalone="no"?>
<!DOCTYPE svg PUBLIC "-//W3C//DTD SVG 20010904//EN"
 "http://www.w3.org/TR/2001/REC-SVG-20010904/DTD/svg10.dtd">
<svg version="1.0" xmlns="http://www.w3.org/2000/svg"
 width="126.000000pt" height="126.000000pt" viewBox="0 0 126.000000 126.000000"
 preserveAspectRatio="xMidYMid meet">
<metadata>
Created by potrace 1.14, written by Peter Selinger 2001-2017
</metadata>
<g transform="translate(0.000000,126.000000) scale(0.100000,-0.100000)"
fill="#000000" stroke="none">
<path d="M1159 1039 c-25 -24 -34 -45 -30 -71 1 -9 4 -9 -69 -12 -80 -3 -141
-41 -256 -158 -191 -195 -289 -244 -484 -242 -92 0 -144 8 -235 33 -38 11 -71
18 -74 16 -7 -8 97 -140 151 -191 59 -56 158 -134 171 -134 5 0 21 -8 35 -18
56 -38 180 -74 271 -77 145 -6 280 65 356 185 29 45 71 167 78 224 5 36 2 43
-38 82 -68 66 -73 134 -14 197 29 30 30 31 24 7 -23 -84 -15 -119 35 -145 27
-14 30 -14 40 4 15 29 68 63 101 66 44 4 44 9 -1 45 -22 17 -40 38 -40 45 0 7
-7 18 -15 25 -20 16 -19 39 1 61 16 18 18 18 42 -1 19 -15 28 -17 38 -9 27 22
-6 96 -42 96 -8 0 -29 -13 -45 -28z"/>
</g>
</svg>
